# xmcd CD database file
# Copyright (C) 1993-1998 Ti Kan
#
# Track frame offsets:
#	152
#	16852
#	35932
#	48657
#	62155
#	73432
#	86437
#	98602
#	123400
#	135342
#	145677
#	159362
#	171945
#	182740
#
# Disc length: 2657 seconds
#
# Revision: 1
# Processed by: cddbd v1.4b41PL1 Copyright (c) Steve Scherf et al.
# Submitted via: CDValet v3.31 - Copyright (c) 1997 Greg Leichner
#
DISCID=c10a5f0e
DTITLE=Gloria Lynne - Golden Classics
DYEAR=1900
DGENRE=
TTITLE0=I Wish You Love
TTITLE1=The Folks That Live On The Hill
TTITLE2=He Needs Me
TTITLE3=I Should Care
TTITLE4=June Night
TTITLE5=Impossible
TTITLE6=Try A Little Tenderness
TTITLE7=I'm Glad There Is You
TTITLE8=Love I've Found You
TTITLE9=Tower Of Strength
TTITLE10=Serenade In Blue
TTITLE11=Don't worry About Me
TTITLE12=Perdido
TTITLE13=Stella By Starlight
EXTD=
EXTT0=
EXTT1=
EXTT2=
EXTT3=
EXTT4=
EXTT5=
EXTT6=
EXTT7=
EXTT8=
EXTT9=
EXTT10=
EXTT11=
EXTT12=
EXTT13=
PLAYORDER=
